<?xml version="1.0" encoding="utf-8" ?>
<svg baseProfile="tiny" height="300mm" version="1.2" width="300mm" xmlns="http://www.w3.org/2000/svg" xmlns:ev="http://www.w3.org/2001/xml-events" xmlns:xlink="http://www.w3.org/1999/xlink"><defs /><path d="M 595 665 C 601.6666666666666 452.33333333333337, 595.6666666666666 240.33333333333331, 577 29 C 576.3333333333334 20.333333333333336, 573.5 13.333333333333332, 568.5 8.0 C 563.5 2.666666666666667, 557.0 0.0, 549 0 C 541.6666666666666 0.0, 534.8333333333334 2.833333333333334, 528.5 8.5 C 522.1666666666666 14.166666666666666, 519.3333333333334 21.0, 520 29 C 528.0 121.66666666666666, 533.6666666666666 216.33333333333334, 537 313 C 395.0 306.3333333333333, 253.33333333333331 307.0, 112 315 C 114.66666666666667 248.33333333333334, 120.0 155.33333333333331, 128 36 C 128.0 30.666666666666668, 126.66666666666667 25.833333333333332, 124.0 21.5 C 121.33333333333333 17.166666666666668, 117.83333333333333 13.666666666666666, 113.5 11.0 C 109.16666666666667 8.333333333333334, 104.33333333333333 7.0, 99 7 C 91.0 7.0, 84.33333333333333 9.833333333333334, 79.0 15.5 C 73.66666666666667 21.166666666666664, 71.0 28.0, 71 36 C 66.33333333333333 106.0, 62.833333333333336 161.0, 60.5 201.0 C 58.166666666666664 241.0, 55.666666666666664 291.1666666666667, 53.0 351.5 C 50.333333333333336 411.8333333333333, 49.166666666666664 468.5, 49.5 521.5 C 49.833333333333336 574.5, 51.666666666666664 626.6666666666666, 55 678 C 55.666666666666664 693.3333333333334, 64.0 702.3333333333334, 80 705 C 95.33333333333333 707.0, 105.33333333333333 701.6666666666666, 110 689 C 111.33333333333333 685.6666666666666, 112.0 682.0, 112 678 C 106.66666666666667 587.3333333333334, 105.66666666666667 485.3333333333333, 109 372 C 252.33333333333331 364.0, 395.6666666666667 363.3333333333333, 539 370 C 541.0 470.0, 540.6666666666666 568.3333333333334, 538 665 C 538.0 676.3333333333334, 542.6666666666666 684.3333333333334, 552.0 689.0 C 561.3333333333334 693.6666666666666, 570.8333333333334 693.6666666666666, 580.5 689.0 C 590.1666666666666 684.3333333333334, 595.0 676.3333333333334, 595 665 Z M 970 56 C 977.3333333333333 54.666666666666664, 983.0 50.166666666666664, 987.0 42.5 C 991.0 34.833333333333336, 992.0 27.333333333333332, 990 20 C 988.0 12.666666666666668, 983.6666666666667 7.333333333333333, 977.0 4.0 C 970.3333333333333 0.666666666666667, 963.0 -0.6666666666666666, 955 0 C 906.3333333333333 8.0, 860.0 19.0, 816 33 C 768.0 48.33333333333333, 735.6666666666666 72.33333333333334, 719 105 C 705.0 133.0, 698.0 169.66666666666669, 698 215 C 698.0 259.6666666666667, 701.6666666666666 292.6666666666667, 709 314 C 721.0 348.6666666666667, 742.6666666666666 372.0, 774 384 C 786.6666666666666 388.0, 806.3333333333334 391.6666666666667, 833 395 C 855.0 397.6666666666667, 873.3333333333334 397.0, 888 393 C 920.0 383.0, 943.0 359.6666666666667, 957 323 C 971.0 284.3333333333333, 973.6666666666667 251.0, 965 223 C 961.0 211.0, 953.5 200.83333333333334, 942.5 192.5 C 931.5 184.16666666666666, 921.3333333333333 178.33333333333334, 912.0 175.0 C 902.6666666666666 171.66666666666666, 890.0 168.0, 874 164 C 837.3333333333334 155.33333333333334, 799.3333333333333 152.0, 760 154 C 766.0 132.66666666666666, 776.0 116.66666666666667, 790 106 C 795.3333333333334 102.0, 802.0 98.33333333333333, 810.0 95.0 C 818.0 91.66666666666667, 824.1666666666666 89.16666666666667, 828.5 87.5 C 832.8333333333334 85.83333333333333, 841.0 83.5, 853.0 80.5 C 865.0 77.5, 871.6666666666666 76.0, 873 76 C 904.3333333333333 67.33333333333333, 936.6666666666667 60.666666666666664, 970 56 Z M 773 315 C 763.6666666666666 303.0, 758.0 283.3333333333333, 756 256 C 754.6666666666666 236.0, 754.0 221.0, 754 211 C 791.3333333333333 208.33333333333334, 826.3333333333334 211.0, 859 219 C 881.6666666666666 225.0, 897.0 230.0, 905 234 C 910.3333333333333 236.66666666666666, 912.3333333333333 245.33333333333334, 911 260 C 909.6666666666667 287.3333333333333, 904.0 308.0, 894 322 C 884.0 336.6666666666667, 864.6666666666666 342.3333333333333, 836 339 C 834.6666666666666 338.3333333333333, 833.3333333333334 338.0, 832 338 C 800.6666666666666 334.0, 781.0 326.3333333333333, 773 315 Z M 1096 397 C 1096.0 419.0, 1096.1666666666667 444.0, 1096.5 472.0 C 1096.8333333333333 500.0, 1097.1666666666667 525.1666666666666, 1097.5 547.5 C 1097.8333333333333 569.8333333333334, 1098.1666666666667 595.0, 1098.5 623.0 C 1098.8333333333333 651.0, 1099.3333333333333 676.0, 1100 698 C 1100.0 710.0, 1104.8333333333333 718.3333333333334, 1114.5 723.0 C 1124.1666666666667 727.6666666666666, 1133.6666666666667 727.6666666666666, 1143.0 723.0 C 1152.3333333333333 718.3333333333334, 1157.0 710.0, 1157 698 C 1156.3333333333333 658.6666666666666, 1155.5 599.8333333333334, 1154.5 521.5 C 1153.5 443.1666666666667, 1152.6666666666667 384.6666666666667, 1152 346 L 1149 169 C 1149.0 130.33333333333334, 1150.6666666666667 105.0, 1154 93 C 1160.0 71.0, 1170.3333333333333 59.0, 1185 57 C 1193.0 56.333333333333336, 1199.6666666666667 53.5, 1205.0 48.5 C 1210.3333333333333 43.5, 1213.0 37.0, 1213 29 C 1213.0 21.666666666666668, 1210.1666666666667 14.833333333333332, 1204.5 8.5 C 1198.8333333333333 2.166666666666667, 1192.3333333333333 -0.6666666666666666, 1185 0 C 1159.6666666666667 3.333333333333333, 1139.1666666666667 14.0, 1123.5 32.0 C 1107.8333333333333 50.0, 1098.3333333333333 72.0, 1095 98 C 1093.0 109.33333333333333, 1091.8333333333333 121.83333333333333, 1091.5 135.5 C 1091.1666666666667 149.16666666666666, 1091.1666666666667 161.16666666666666, 1091.5 171.5 C 1091.8333333333333 181.83333333333334, 1092.1666666666667 194.66666666666666, 1092.5 210.0 C 1092.8333333333333 225.33333333333334, 1093.0 237.33333333333334, 1093 246 Z M 1318 397 C 1318.0 419.0, 1318.1666666666667 444.0, 1318.5 472.0 C 1318.8333333333333 500.0, 1319.1666666666667 525.1666666666666, 1319.5 547.5 C 1319.8333333333333 569.8333333333334, 1320.1666666666667 595.0, 1320.5 623.0 C 1320.8333333333333 651.0, 1321.3333333333333 676.0, 1322 698 C 1322.0 710.0, 1326.8333333333333 718.3333333333334, 1336.5 723.0 C 1346.1666666666667 727.6666666666666, 1355.6666666666667 727.6666666666666, 1365.0 723.0 C 1374.3333333333333 718.3333333333334, 1379.0 710.0, 1379 698 C 1378.3333333333333 658.6666666666666, 1377.5 599.8333333333334, 1376.5 521.5 C 1375.5 443.1666666666667, 1374.6666666666667 384.6666666666667, 1374 346 L 1371 169 C 1371.0 130.33333333333334, 1372.6666666666667 105.0, 1376 93 C 1382.0 71.0, 1392.3333333333333 59.0, 1407 57 C 1415.0 56.333333333333336, 1421.6666666666667 53.5, 1427.0 48.5 C 1432.3333333333333 43.5, 1435.0 37.0, 1435 29 C 1435.0 21.666666666666668, 1432.1666666666667 14.833333333333332, 1426.5 8.5 C 1420.8333333333333 2.166666666666667, 1414.3333333333333 -0.6666666666666666, 1407 0 C 1381.6666666666667 3.333333333333333, 1361.1666666666667 14.0, 1345.5 32.0 C 1329.8333333333333 50.0, 1320.3333333333333 72.0, 1317 98 C 1315.0 109.33333333333333, 1313.8333333333333 121.83333333333333, 1313.5 135.5 C 1313.1666666666667 149.16666666666666, 1313.1666666666667 161.16666666666666, 1313.5 171.5 C 1313.8333333333333 181.83333333333334, 1314.1666666666667 194.66666666666666, 1314.5 210.0 C 1314.8333333333333 225.33333333333334, 1315.0 237.33333333333334, 1315 246 Z M 1793 374 C 1829.0 362.0, 1858.1666666666667 339.6666666666667, 1880.5 307.0 C 1902.8333333333333 274.3333333333333, 1913.0 239.33333333333331, 1911 202 C 1908.3333333333333 160.66666666666669, 1898.6666666666667 120.66666666666666, 1882 82 C 1866.0 45.333333333333336, 1841.3333333333333 21.0, 1808 9 C 1779.3333333333333 -1.666666666666666, 1739.6666666666667 -2.666666666666666, 1689 6 C 1648.3333333333333 12.666666666666666, 1615.3333333333333 27.666666666666668, 1590 51 C 1563.3333333333333 75.0, 1546.6666666666667 109.66666666666667, 1540 155 C 1532.0 207.0, 1534.6666666666667 248.66666666666666, 1548 280 C 1562.6666666666667 313.3333333333333, 1586.3333333333333 338.6666666666667, 1619.0 356.0 C 1651.6666666666667 373.3333333333333, 1687.6666666666667 382.3333333333333, 1727 383 C 1730.3333333333333 384.3333333333333, 1734.0 385.0, 1738 385 C 1745.3333333333333 385.6666666666667, 1754.3333333333333 385.0, 1765 383 C 1772.3333333333333 381.6666666666667, 1779.3333333333333 380.0, 1786 378 C 1788.6666666666667 377.3333333333333, 1791.0 376.0, 1793 374 Z M 1839 130 C 1851.6666666666667 172.0, 1856.3333333333333 204.0, 1853 226 C 1849.6666666666667 250.66666666666666, 1839.1666666666667 272.0, 1821.5 290.0 C 1803.8333333333333 308.0, 1783.0 319.6666666666667, 1759 325 C 1758.3333333333333 325.0, 1757.0 325.3333333333333, 1755 326 C 1752.3333333333333 325.3333333333333, 1750.0 325.3333333333333, 1748 326 C 1731.3333333333333 326.6666666666667, 1715.1666666666667 325.8333333333333, 1699.5 323.5 C 1683.8333333333333 321.1666666666667, 1668.6666666666667 316.8333333333333, 1654.0 310.5 C 1639.3333333333333 304.1666666666667, 1626.6666666666667 294.8333333333333, 1616.0 282.5 C 1605.3333333333333 270.1666666666667, 1598.3333333333333 256.0, 1595 240 C 1589.0 212.0, 1590.6666666666667 180.66666666666666, 1600 146 C 1607.3333333333333 116.0, 1621.6666666666667 94.33333333333333, 1643 81 C 1663.0 69.0, 1689.0 61.666666666666664, 1721 59 C 1761.0 55.666666666666664, 1788.6666666666667 59.333333333333336, 1804 70 C 1818.6666666666667 80.66666666666667, 1830.3333333333333 100.66666666666667, 1839 130 Z M 3392 699 C 3399.333333333333 707.6666666666666, 3407.833333333333 712.0, 3417.5 712.0 C 3427.166666666667 712.0, 3435.0 707.5, 3441.0 698.5 C 3447.0 689.5, 3447.0 680.0, 3441 670 C 3415.0 626.6666666666666, 3389.3333333333335 580.0, 3364 530 C 3334.0 470.6666666666667, 3293.6666666666665 383.5, 3243.0 268.5 C 3192.3333333333335 153.5, 3154.3333333333335 70.33333333333333, 3129 19 C 3125.6666666666665 12.333333333333334, 3119.8333333333335 8.0, 3111.5 6.0 C 3103.1666666666665 4.0, 3096.0 5.0, 3090 9 C 3082.6666666666665 13.0, 3078.3333333333335 19.333333333333336, 3077 28 C 3031.0 88.0, 2996.3333333333335 139.0, 2973 181 C 2955.0 213.66666666666666, 2938.3333333333335 248.66666666666669, 2923 286 C 2916.3333333333335 273.3333333333333, 2905.8333333333335 255.16666666666666, 2891.5 231.5 C 2877.1666666666665 207.83333333333334, 2867.0 191.0, 2861 181 C 2853.6666666666665 167.0, 2842.3333333333335 140.33333333333331, 2827.0 101.0 C 2811.6666666666665 61.66666666666667, 2797.0 32.666666666666664, 2783 14 C 2771.6666666666665 -1.3333333333333321, 2758.6666666666665 -4.666666666666666, 2744 4 C 2739.3333333333335 6.666666666666666, 2735.6666666666665 11.0, 2733 17 C 2731.0 18.333333333333332, 2729.6666666666665 19.666666666666668, 2729 21 C 2710.3333333333335 51.0, 2689.3333333333335 99.33333333333334, 2666 166 C 2633.3333333333335 260.0, 2597.6666666666665 349.6666666666667, 2559 435 C 2539.0 479.0, 2518.3333333333335 522.6666666666666, 2497 566 C 2495.6666666666665 568.0, 2492.5 574.1666666666666, 2487.5 584.5 C 2482.5 594.8333333333334, 2479.1666666666665 601.5, 2477.5 604.5 C 2475.8333333333335 607.5, 2472.6666666666665 613.1666666666666, 2468.0 621.5 C 2463.3333333333335 629.8333333333334, 2459.3333333333335 636.1666666666666, 2456.0 640.5 C 2452.6666666666665 644.8333333333334, 2448.5 649.8333333333334, 2443.5 655.5 C 2438.5 661.1666666666666, 2433.3333333333335 666.3333333333334, 2428 671 C 2422.6666666666665 676.3333333333334, 2420.0 683.0, 2420.0 691.0 C 2420.0 699.0, 2422.6666666666665 705.6666666666666, 2428 711 C 2434.0 717.0, 2440.6666666666665 719.8333333333334, 2448.0 719.5 C 2455.3333333333335 719.1666666666666, 2462.3333333333335 716.3333333333334, 2469 711 C 2473.0 707.6666666666666, 2477.0 704.0, 2481.0 700.0 C 2485.0 696.0, 2488.8333333333335 691.6666666666666, 2492.5 687.0 C 2496.1666666666665 682.3333333333334, 2499.5 678.0, 2502.5 674.0 C 2505.5 670.0, 2508.6666666666665 665.3333333333334, 2512.0 660.0 C 2515.3333333333335 654.6666666666666, 2518.1666666666665 650.0, 2520.5 646.0 C 2522.8333333333335 642.0, 2525.5 636.8333333333334, 2528.5 630.5 C 2531.5 624.1666666666666, 2534.0 619.1666666666666, 2536.0 615.5 C 2538.0 611.8333333333334, 2540.5 606.8333333333334, 2543.5 600.5 C 2546.5 594.1666666666666, 2549.0 589.3333333333334, 2551 586 C 2595.0 497.33333333333337, 2635.3333333333335 406.0, 2672 312 C 2688.6666666666665 270.6666666666667, 2705.6666666666665 224.66666666666666, 2723 174 C 2736.3333333333335 136.66666666666669, 2748.3333333333335 107.33333333333333, 2759 86 C 2763.6666666666665 96.0, 2771.3333333333335 114.83333333333334, 2782.0 142.5 C 2792.6666666666665 170.16666666666666, 2802.0 191.0, 2810 205 C 2816.0 216.33333333333334, 2825.5 232.5, 2838.5 253.5 C 2851.5 274.5, 2862.6666666666665 293.5, 2872.0 310.5 C 2881.3333333333335 327.5, 2888.6666666666665 344.6666666666667, 2894 362 C 2896.0 368.6666666666667, 2899.3333333333335 373.6666666666667, 2904 377 C 2910.6666666666665 385.0, 2919.8333333333335 388.1666666666667, 2931.5 386.5 C 2943.1666666666665 384.8333333333333, 2951.0 378.3333333333333, 2955 367 C 2984.3333333333335 275.0, 3032.6666666666665 183.0, 3100 91 C 3117.3333333333335 127.0, 3133.0 160.66666666666666, 3147 192 C 3155.6666666666665 212.0, 3170.3333333333335 245.5, 3191.0 292.5 C 3211.6666666666665 339.5, 3227.8333333333335 375.8333333333333, 3239.5 401.5 C 3251.1666666666665 427.1666666666667, 3266.0 459.1666666666667, 3284.0 497.5 C 3302.0 535.8333333333334, 3319.8333333333335 571.3333333333334, 3337.5 604.0 C 3355.1666666666665 636.6666666666666, 3373.3333333333335 668.3333333333334, 3392 699 Z M 3803 374 C 3839.0 362.0, 3868.1666666666665 339.6666666666667, 3890.5 307.0 C 3912.8333333333335 274.3333333333333, 3923.0 239.33333333333331, 3921 202 C 3918.3333333333335 160.66666666666669, 3908.6666666666665 120.66666666666666, 3892 82 C 3876.0 45.333333333333336, 3851.3333333333335 21.0, 3818 9 C 3789.3333333333335 -1.666666666666666, 3749.6666666666665 -2.666666666666666, 3699 6 C 3658.3333333333335 12.666666666666666, 3625.3333333333335 27.666666666666668, 3600 51 C 3573.3333333333335 75.0, 3556.6666666666665 109.66666666666667, 3550 155 C 3542.0 207.0, 3544.6666666666665 248.66666666666666, 3558 280 C 3572.6666666666665 313.3333333333333, 3596.3333333333335 338.6666666666667, 3629.0 356.0 C 3661.6666666666665 373.3333333333333, 3697.6666666666665 382.3333333333333, 3737 383 C 3740.3333333333335 384.3333333333333, 3744.0 385.0, 3748 385 C 3755.3333333333335 385.6666666666667, 3764.3333333333335 385.0, 3775 383 C 3782.3333333333335 381.6666666666667, 3789.3333333333335 380.0, 3796 378 C 3798.6666666666665 377.3333333333333, 3801.0 376.0, 3803 374 Z M 3849 130 C 3861.6666666666665 172.0, 3866.3333333333335 204.0, 3863 226 C 3859.6666666666665 250.66666666666666, 3849.1666666666665 272.0, 3831.5 290.0 C 3813.8333333333335 308.0, 3793.0 319.6666666666667, 3769 325 C 3768.3333333333335 325.0, 3767.0 325.3333333333333, 3765 326 C 3762.3333333333335 325.3333333333333, 3760.0 325.3333333333333, 3758 326 C 3741.3333333333335 326.6666666666667, 3725.1666666666665 325.8333333333333, 3709.5 323.5 C 3693.8333333333335 321.1666666666667, 3678.6666666666665 316.8333333333333, 3664.0 310.5 C 3649.3333333333335 304.1666666666667, 3636.6666666666665 294.8333333333333, 3626.0 282.5 C 3615.3333333333335 270.1666666666667, 3608.3333333333335 256.0, 3605 240 C 3599.0 212.0, 3600.6666666666665 180.66666666666666, 3610 146 C 3617.3333333333335 116.0, 3631.6666666666665 94.33333333333333, 3653 81 C 3673.0 69.0, 3699.0 61.666666666666664, 3731 59 C 3771.0 55.666666666666664, 3798.6666666666665 59.333333333333336, 3814 70 C 3828.6666666666665 80.66666666666667, 3840.3333333333335 100.66666666666667, 3849 130 Z M 4352 301 C 4355.333333333333 294.3333333333333, 4356.166666666667 287.1666666666667, 4354.5 279.5 C 4352.833333333333 271.8333333333333, 4348.666666666667 266.0, 4342 262 C 4336.0 258.0, 4328.833333333333 257.0, 4320.5 259.0 C 4312.166666666667 261.0, 4306.333333333333 265.3333333333333, 4303 272 C 4297.0 285.3333333333333, 4288.5 296.6666666666667, 4277.5 306.0 C 4266.5 315.3333333333333, 4254.333333333333 322.5, 4241.0 327.5 C 4227.666666666667 332.5, 4213.666666666667 335.0, 4199 335 C 4157.666666666667 335.0, 4118.0 317.3333333333333, 4080 282 C 4080.6666666666665 253.33333333333334, 4081.6666666666665 210.83333333333331, 4083.0 154.5 C 4084.3333333333335 98.16666666666667, 4085.3333333333335 56.0, 4086 28 C 4086.0 16.0, 4081.3333333333335 7.666666666666666, 4072.0 3.0 C 4062.6666666666665 -1.666666666666666, 4053.1666666666665 -1.666666666666666, 4043.5 3.0 C 4033.8333333333335 7.666666666666666, 4028.6666666666665 16.0, 4028 28 C 4026.6666666666665 85.33333333333333, 4025.0 171.33333333333334, 4023 286 C 4021.6666666666665 290.0, 4021.3333333333335 294.3333333333333, 4022 299 C 4022.0 312.3333333333333, 4021.6666666666665 331.6666666666667, 4021 357 C 4021.0 369.0, 4025.6666666666665 377.3333333333333, 4035.0 382.0 C 4044.3333333333335 386.6666666666667, 4053.8333333333335 386.6666666666667, 4063.5 382.0 C 4073.1666666666665 377.3333333333333, 4078.0 369.0, 4078 357 C 4078.0 356.3333333333333, 4078.0 355.6666666666667, 4078 355 L 4078 353 C 4119.333333333333 380.3333333333333, 4161.0 393.3333333333333, 4203 392 C 4223.666666666667 391.3333333333333, 4243.666666666667 387.5, 4263.0 380.5 C 4282.333333333333 373.5, 4299.833333333333 363.0, 4315.5 349.0 C 4331.166666666667 335.0, 4343.333333333333 319.0, 4352 301 Z M 4461 397 C 4461.0 419.0, 4461.166666666667 444.0, 4461.5 472.0 C 4461.833333333333 500.0, 4462.166666666667 525.1666666666666, 4462.5 547.5 C 4462.833333333333 569.8333333333334, 4463.166666666667 595.0, 4463.5 623.0 C 4463.833333333333 651.0, 4464.333333333333 676.0, 4465 698 C 4465.0 710.0, 4469.833333333333 718.3333333333334, 4479.5 723.0 C 4489.166666666667 727.6666666666666, 4498.666666666667 727.6666666666666, 4508.0 723.0 C 4517.333333333333 718.3333333333334, 4522.0 710.0, 4522 698 C 4521.333333333333 658.6666666666666, 4520.5 599.8333333333334, 4519.5 521.5 C 4518.5 443.1666666666667, 4517.666666666667 384.6666666666667, 4517 346 L 4514 169 C 4514.0 130.33333333333334, 4515.666666666667 105.0, 4519 93 C 4525.0 71.0, 4535.333333333333 59.0, 4550 57 C 4558.0 56.333333333333336, 4564.666666666667 53.5, 4570.0 48.5 C 4575.333333333333 43.5, 4578.0 37.0, 4578 29 C 4578.0 21.666666666666668, 4575.166666666667 14.833333333333332, 4569.5 8.5 C 4563.833333333333 2.166666666666667, 4557.333333333333 -0.6666666666666666, 4550 0 C 4524.666666666667 3.333333333333333, 4504.166666666667 14.0, 4488.5 32.0 C 4472.833333333333 50.0, 4463.333333333333 72.0, 4460 98 C 4458.0 109.33333333333333, 4456.833333333333 121.83333333333333, 4456.5 135.5 C 4456.166666666667 149.16666666666666, 4456.166666666667 161.16666666666666, 4456.5 171.5 C 4456.833333333333 181.83333333333334, 4457.166666666667 194.66666666666666, 4457.5 210.0 C 4457.833333333333 225.33333333333334, 4458.0 237.33333333333334, 4458 246 Z M 5021 328 C 5022.333333333333 310.0, 5030.0 210.33333333333331, 5044 29 C 5044.666666666667 21.0, 5042.0 14.166666666666666, 5036.0 8.5 C 5030.0 2.833333333333334, 5023.333333333333 0.0, 5016 0 C 5004.0 0.0, 4995.333333333333 5.333333333333334, 4990 16 C 4928.666666666667 3.333333333333334, 4869.666666666667 10.333333333333336, 4813 37 C 4787.666666666667 48.33333333333333, 4764.833333333333 63.5, 4744.5 82.5 C 4724.166666666667 101.5, 4708.333333333333 122.66666666666667, 4697 146 C 4684.333333333333 171.33333333333334, 4678.166666666667 199.5, 4678.5 230.5 C 4678.833333333333 261.5, 4686.666666666667 289.0, 4702 313 C 4716.0 335.6666666666667, 4734.333333333333 353.3333333333333, 4757 366 C 4778.333333333333 378.0, 4806.666666666667 385.0, 4842 387 C 4892.666666666667 389.6666666666667, 4932.0 388.0, 4960 382 C 4954.666666666667 489.3333333333333, 4958.0 583.3333333333334, 4970 664 C 4971.333333333333 671.3333333333334, 4975.833333333333 677.0, 4983.5 681.0 C 4991.166666666667 685.0, 4998.333333333333 686.0, 5005 684 C 5013.0 682.0, 5018.666666666667 677.6666666666666, 5022.0 671.0 C 5025.333333333333 664.3333333333334, 5026.333333333333 657.0, 5025 649 C 5013.666666666667 571.6666666666666, 5011.666666666667 474.0, 5019 356 C 5025.666666666667 348.0, 5026.333333333333 338.6666666666667, 5021 328 Z M 4761 150 C 4783.666666666667 116.0, 4816.166666666667 92.33333333333333, 4858.5 79.0 C 4900.833333333333 65.66666666666667, 4942.333333333333 63.66666666666667, 4983 73 C 4973.666666666667 195.0, 4967.333333333333 278.0, 4964 322 C 4937.333333333333 331.3333333333333, 4893.333333333333 333.6666666666667, 4832 329 C 4788.0 325.6666666666667, 4758.333333333333 306.0, 4743 270 C 4735.0 248.66666666666666, 4732.833333333333 227.83333333333334, 4736.5 207.5 C 4740.166666666667 187.16666666666666, 4748.333333333333 168.0, 4761 150 Z" fill="none" stroke="black" /></svg>