<?xml version="1.0" encoding="UTF-8" standalone="no"?>
<!-- Created with Inkscape (http://www.inkscape.org/) -->

<svg
   width="290mm"
   height="290mm"
   viewBox="0 0 290 290"
   version="1.1"
   id="svg1"
   inkscape:export-filename="path.svg"
   inkscape:export-xdpi="96"
   inkscape:export-ydpi="96"
   xmlns:inkscape="http://www.inkscape.org/namespaces/inkscape"
   xmlns:sodipodi="http://sodipodi.sourceforge.net/DTD/sodipodi-0.dtd"
   xmlns="http://www.w3.org/2000/svg"
   xmlns:svg="http://www.w3.org/2000/svg">
  <sodipodi:namedview
     id="namedview1"
     pagecolor="#ffffff"
     bordercolor="#000000"
     borderopacity="0.25"
     inkscape:showpageshadow="2"
     inkscape:pageopacity="0.0"
     inkscape:pagecheckerboard="0"
     inkscape:deskcolor="#d1d1d1"
     inkscape:document-units="mm" />
  <defs
     id="defs1" />
  <g
     inkscape:label="Layer 1"
     inkscape:groupmode="layer"
     id="layer1">
    <path
       style="font-size:74.6667px;white-space:pre;stroke:#000000"
       d="m 195.43752,253.13632 h -6.85417 v -23.18751 q 0,-2.80729 -0.32813,-5.25 -0.32812,-2.47917 -1.20312,-3.86459 -0.91146,-1.53125 -2.625,-2.26042 -1.71354,-0.76562 -4.44792,-0.76562 -2.80729,0 -5.8698,1.38542 -3.0625,1.38541 -5.86979,3.53646 v 30.40626 h -6.85417 v -56.72919 h 6.85417 v 20.52605 q 3.20833,-2.66146 6.63542,-4.15625 3.42708,-1.4948 7.03646,-1.4948 6.59896,0 10.06251,3.97396 3.46354,3.97396 3.46354,11.44793 z M 242.724,233.48527 h -30.00522 q 0,3.75521 1.13021,6.5625 1.13021,2.77084 3.09896,4.5573 1.89583,1.75 4.48437,2.625 2.62501,0.875 5.76042,0.875 4.15626,0 8.34897,-1.64063 4.22916,-1.67708 6.01562,-3.28125 h 0.36459 v 7.47396 q -3.46355,1.45834 -7.07292,2.44271 -3.60938,0.98438 -7.58334,0.98438 -10.13542,0 -15.82292,-5.46875 -5.68751,-5.50522 -5.68751,-15.60418 0,-9.98959 5.4323,-15.85938 5.46875,-5.8698 14.36459,-5.8698 8.23958,0 12.6875,4.81251 4.48438,4.8125 4.48438,13.67188 z m -6.67188,-5.25 q -0.0365,-5.39584 -2.73437,-8.34896 -2.66146,-2.95313 -8.13022,-2.95313 -5.50521,0 -8.78646,3.24479 -3.24479,3.2448 -3.68229,8.0573 z m 23.9896,24.90105 h -6.85417 v -56.72919 h 6.85417 z m 20.48959,0 h -6.85417 v -56.72919 h 6.85417 z m 48.27086,-20.34376 q 0,9.95313 -5.10416,15.71355 -5.10417,5.76042 -13.67189,5.76042 -8.64063,0 -13.74479,-5.76042 -5.06772,-5.76042 -5.06772,-15.71355 0,-9.95313 5.06772,-15.71355 5.10416,-5.79688 13.74479,-5.79688 8.56772,0 13.67189,5.79688 5.10416,5.76042 5.10416,15.71355 z m -7.07292,0 q 0,-7.91146 -3.09896,-11.73959 -3.09896,-3.86458 -8.60417,-3.86458 -5.57812,0 -8.67708,3.86458 -3.06251,3.82813 -3.06251,11.73959 0,7.65626 3.09896,11.63022 3.09896,3.9375 8.64063,3.9375 5.46876,0 8.56772,-3.90105 3.13541,-3.9375 3.13541,-11.66667 z m 95.15629,-20.38022 -10.60938,40.72398 h -6.34375 l -10.46355,-31.39064 -10.39063,31.39064 h -6.30729 l -10.71876,-40.72398 h 7.14584 l 7.47396,31.53648 10.17188,-31.53648 h 5.65104 l 10.42709,31.53648 7.07292,-31.53648 z m 44.58857,20.38022 q 0,9.95313 -5.10417,15.71355 -5.10417,5.76042 -13.67188,5.76042 -8.64063,0 -13.7448,-5.76042 -5.06771,-5.76042 -5.06771,-15.71355 0,-9.95313 5.06771,-15.71355 5.10417,-5.79688 13.7448,-5.79688 8.56771,0 13.67188,5.79688 5.10417,5.76042 5.10417,15.71355 z m -7.07292,0 q 0,-7.91146 -3.09896,-11.73959 -3.09896,-3.86458 -8.60417,-3.86458 -5.57813,0 -8.67709,3.86458 -3.0625,3.82813 -3.0625,11.73959 0,7.65626 3.09896,11.63022 3.09896,3.9375 8.64063,3.9375 5.46875,0 8.56771,-3.90105 3.13542,-3.9375 3.13542,-11.66667 z m 43.09376,-12.90625 h -0.36458 q -1.53125,-0.36459 -2.98959,-0.51042 -1.42187,-0.18229 -3.39063,-0.18229 -3.17187,0 -6.125,1.42187 -2.95312,1.38542 -5.6875,3.60938 v 28.91147 h -6.85417 v -40.72398 h 6.85417 v 6.01563 q 4.08333,-3.28125 7.18229,-4.63021 3.13542,-1.38542 6.38022,-1.38542 1.78645,0 2.58854,0.10938 0.80208,0.0729 2.40625,0.32812 z m 13.38021,33.25001 h -6.85417 v -56.72919 h 6.85417 z m 46.59377,0 h -6.85417 v -4.26563 q -2.95312,2.55209 -6.16146,3.97396 -3.20833,1.42188 -6.96354,1.42188 -7.29167,0 -11.59376,-5.61459 -4.26563,-5.61458 -4.26563,-15.56771 0,-5.17709 1.45834,-9.22396 1.49479,-4.04688 4.01042,-6.89063 2.47916,-2.77084 5.76041,-4.22917 3.31771,-1.45834 6.85417,-1.45834 3.20834,0 5.68751,0.69271 2.47917,0.65625 5.21354,2.07813 v -17.64584 h 6.85417 z m -6.85417,-10.02605 v -23.3698 q -2.77083,-1.23958 -4.95833,-1.71354 -2.1875,-0.47396 -4.77605,-0.47396 -5.76042,0 -8.96875,4.01042 -3.20834,4.01042 -3.20834,11.375 0,7.25522 2.47917,11.04689 2.47917,3.75521 7.94792,3.75521 2.91667,0 5.90625,-1.27605 2.98959,-1.3125 5.57813,-3.35417 z"
       id="text1"
       transform="scale(0.26458333)"
       aria-label="hello world" />
  </g>
</svg>
